<svg width="18" height="28" viewBox="0 0 18 28" fill="none" xmlns="http://www.w3.org/2000/svg">
<path d="M9 21.5714V22.5714C9.55229 22.5714 10 22.1237 10 21.5714H9ZM7.47619 20.5714C6.92391 20.5714 6.47619 21.0191 6.47619 21.5714C6.47619 22.1237 6.92391 22.5714 7.47619 22.5714V20.5714ZM0 12.4285V22.1429H2V12.4285H0ZM5 27.1429H13V25.1429H5V27.1429ZM18 22.1429V12.4285H16V22.1429H18ZM3.52381 10.9047V7.47619H1.52381V10.9047H3.52381ZM15.4762 9.90473H2.52381V11.9047H15.4762V9.90473ZM14.4762 7.47619V10.9047H16.4762V7.47619H14.4762ZM8 18.5238V21.5714H10V18.5238H8ZM9 20.5714H7.47619V22.5714H9V20.5714ZM6.47619 17C6.47619 18.3939 7.60614 19.5238 9 19.5238V17.5238C8.71071 17.5238 8.47619 17.2893 8.47619 17H6.47619ZM8.47619 17C8.47619 16.7107 8.71071 16.4762 9 16.4762V14.4762C7.60614 14.4762 6.47619 15.6061 6.47619 17H8.47619ZM9 2C12.0244 2 14.4762 4.45177 14.4762 7.47619H16.4762C16.4762 3.3472 13.129 0 9 0V2ZM18 12.4285C18 11.0347 16.8701 9.90473 15.4762 9.90473V11.9047C15.7655 11.9047 16 12.1393 16 12.4285H18ZM13 27.1429C15.7614 27.1429 18 24.9043 18 22.1429H16C16 23.7997 14.6569 25.1429 13 25.1429V27.1429ZM11.5238 17C11.5238 15.6061 10.3939 14.4762 9 14.4762V16.4762C9.28929 16.4762 9.52381 16.7107 9.52381 17H11.5238ZM0 22.1429C0 24.9043 2.23858 27.1429 5 27.1429V25.1429C3.34315 25.1429 2 23.7997 2 22.1429H0ZM3.52381 7.47619C3.52381 4.45177 5.97558 2 9 2V0C4.87101 0 1.52381 3.34721 1.52381 7.47619H3.52381ZM9.52381 17C9.52381 17.2893 9.28929 17.5238 9 17.5238V19.5238C10.3939 19.5238 11.5238 18.3939 11.5238 17H9.52381ZM2 12.4285C2 12.1393 2.23452 11.9047 2.52381 11.9047V9.90473C1.12995 9.90473 0 11.0347 0 12.4285H2Z" fill="#072AC8"/>
</svg>
