<svg width="1008" height="900" viewBox="0 0 1008 900" fill="none" xmlns="http://www.w3.org/2000/svg">
<g filter="url(#filter0_d)">
<path d="M879.37 223.282L938.294 228.993C941.812 229.334 944.927 226.9 945.251 223.555L951.024 164.003C951.348 160.658 948.759 157.67 945.241 157.329L886.317 151.618C882.799 151.276 879.684 153.711 879.36 157.056L873.587 216.608C873.263 219.953 875.852 222.941 879.37 223.282Z" stroke="url(#paint0_linear)" stroke-width="24" stroke-linecap="round" stroke-linejoin="round" shape-rendering="crispEdges"/>
</g>
<g filter="url(#filter1_d)">
<path d="M258.381 658.729L280.408 713.679C281.723 716.96 285.317 718.606 288.436 717.356L343.972 695.095C347.091 693.844 348.553 690.171 347.238 686.89L325.212 631.94C323.897 628.66 320.302 627.014 317.183 628.264L261.648 650.525C258.529 651.775 257.066 655.448 258.381 658.729Z" stroke="url(#paint1_linear)" stroke-width="24" stroke-linecap="round" stroke-linejoin="round" shape-rendering="crispEdges"/>
</g>
<g filter="url(#filter2_d)">
<rect x="721" y="450" width="72" height="72" rx="36" stroke="url(#paint2_linear)" stroke-width="24" shape-rendering="crispEdges"/>
</g>
<g filter="url(#filter3_d)">
<rect x="179" y="52" width="154" height="154" rx="77" stroke="url(#paint3_linear)" stroke-width="32" shape-rendering="crispEdges"/>
</g>
<g filter="url(#filter4_d)">
<path d="M39.9682 470.794L39.6848 530.659C39.6108 546.302 56.7147 555.97 70.0789 547.84L125.137 514.347C138.688 506.104 137.71 486.121 123.419 479.24L68.644 452.869C55.4026 446.493 40.0378 456.098 39.9682 470.794Z" stroke="url(#paint4_linear)" stroke-width="24" shape-rendering="crispEdges"/>
</g>
<g filter="url(#filter5_d)">
<path d="M763.617 791.666L871.873 771.306C890.264 767.847 894.256 743.281 877.906 734.177L799.123 690.309C788.937 684.637 776.078 688.845 771.216 699.441L741.743 763.669C734.974 778.42 747.667 794.666 763.617 791.666Z" stroke="url(#paint5_linear)" stroke-width="24" shape-rendering="crispEdges"/>
</g>
<g filter="url(#filter6_d)">
<path fill-rule="evenodd" clip-rule="evenodd" d="M352.913 97.1019L591.13 197.457V275.65L557.337 304.165V279.336C557.337 277.264 555.755 275.535 553.691 275.352L538.531 274.003L537.031 273.87L530.031 273.247L523.031 272.625L514.682 271.882C512.647 271.702 510.606 272.148 508.833 273.162L485.028 286.771C483.782 287.483 483.013 288.808 483.013 290.243V327.757L444.056 351.359C442.86 352.084 442.129 353.381 442.129 354.78V401.347L281.678 533.134V227.741C279.051 228.422 276.382 229.001 273.678 229.474V537.596H195C192.791 537.596 191 539.387 191 541.596C191 543.805 192.791 545.596 195 545.596H276.798L584.934 688.064C591.56 691.128 599.13 686.288 599.13 678.987V578.407V578.363V537.096V504.596V437.536C599.131 437.508 599.131 437.479 599.13 437.45V435.596V425.096V410.304C599.131 410.25 599.131 410.196 599.13 410.143V277.508V229.775L605.77 258.424L620.152 320.474C620.186 320.622 620.204 320.774 620.204 320.926V661.724V711.096C620.204 713.305 621.995 715.096 624.204 715.096C626.413 715.096 628.204 713.305 628.204 711.096V663.484L652.8 640.939L678.695 617.206C680.323 615.713 680.433 613.183 678.941 611.555C677.448 609.926 674.918 609.816 673.289 611.309L647.395 635.042L650.097 637.991L647.395 635.042L628.204 652.632V320.926C628.204 320.166 628.117 319.408 627.945 318.668L613.564 256.617L599.554 196.173L711.881 93.2192C713.51 91.7266 713.62 89.1963 712.128 87.5677C710.635 85.9392 708.105 85.829 706.476 87.3217L594.319 190.12L348.846 86.7078C350.384 90.0782 351.744 93.5469 352.913 97.1019ZM557.337 314.633L591.13 286.117V405.282L590.953 405.244V327.511C590.953 325.427 589.354 323.693 587.277 323.524L557.337 321.096V314.633ZM586.118 412.392L591.13 413.463V420.101L554.604 411.92L562.368 407.796C562.784 407.575 563.264 407.508 563.724 407.607L586.118 412.392ZM543.746 417.686L591.13 428.299V430.549L541.459 418.901L542.494 418.351L543.746 417.686ZM530.726 424.601L587.811 437.988L572.387 449.561L509.442 435.904L530.726 424.601ZM501.916 442.457L569.325 457.083V592.154L503.36 573.07C502.505 572.823 501.916 572.04 501.916 571.149V466.784V442.457ZM591.13 576.572L577.325 588.657V455.857L591.13 445.499V502.492L586.011 506.012C583.298 507.877 581.677 510.959 581.677 514.252V532.095C581.677 537.677 586.097 541.81 591.13 542.092V576.572ZM590.543 512.604L591.13 512.2V534.02C590.318 533.786 589.677 533.046 589.677 532.095V514.252C589.677 513.593 590.001 512.977 590.543 512.604ZM575.96 600.485L591.13 587.204V678.987C591.13 680.447 589.616 681.415 588.291 680.803L285.143 540.641L442.129 411.7V454.115C442.129 459.086 445.78 463.303 450.701 464.013L493.916 470.249V571.149C493.916 575.602 496.86 579.518 501.137 580.755L572.214 601.317C573.523 601.696 574.935 601.382 575.96 600.485ZM450.129 454.115V403.266C450.129 403.246 450.129 403.226 450.129 403.206V359.183L477.177 361.785V376.816C477.177 381.847 480.915 386.095 485.905 386.735L493.405 387.696C499.384 388.463 504.677 383.805 504.677 377.777V365.085L536.618 367.571V412.414L528.301 416.831L496.04 433.964C494.823 434.61 494.031 435.832 493.927 437.191C493.339 436.633 492.575 436.248 491.709 436.131L458.209 431.631C456.02 431.337 454.006 432.874 453.712 435.063C453.418 437.253 454.955 439.266 457.144 439.56L490.644 444.06C491.885 444.227 493.069 443.806 493.916 443.011V462.166L451.843 456.095C450.859 455.953 450.129 455.109 450.129 454.115ZM480.06 354.026L458.515 351.953L483.013 337.111V337.26C483.013 341.716 485.944 345.546 490.061 346.815L480.06 354.026ZM485.177 360.199L501.778 348.23L509.454 349.033L508.312 349.87C508.289 349.887 508.266 349.904 508.243 349.921L498.243 357.588C497.256 358.345 496.677 359.518 496.677 360.762V377.777C496.677 378.983 495.618 379.914 494.422 379.761L486.922 378.8C485.924 378.672 485.177 377.822 485.177 376.816V360.199ZM513.077 356.296L521.296 350.27L532.933 351.487C534.041 351.602 535.146 351.251 535.984 350.518L553.924 334.813C555.63 333.32 556.764 331.304 557.17 329.108L576.446 330.672L539.374 359.761L511.397 357.584L513.077 356.296ZM544.618 365.816L582.953 335.734V403.535L565.396 399.783C563.095 399.292 560.694 399.627 558.616 400.731L544.618 408.165V365.816ZM549.337 312.749C549.337 312.767 549.337 312.785 549.337 312.803V324.784V327.289C549.337 327.866 549.088 328.414 548.655 328.794L537.349 338.691V296.752L549.337 287.484V312.749ZM529.349 298.38V343.069L520.592 342.153L501.092 340.115L492.805 339.249C491.787 339.142 491.013 338.284 491.013 337.26V330.011V294.655L498.296 295.369C498.972 299.697 502.432 303.162 506.897 303.738L510.397 304.19C515.256 304.817 519.665 301.859 521.148 297.494L529.349 298.38ZM501.038 287.6L499.893 287.488L505.66 284.191L501.038 287.6ZM506.177 293.751L523.832 280.728L527.298 281.036L515.304 289.876C514.281 290.63 513.677 291.825 513.677 293.096V294.272C513.677 295.478 512.617 296.41 511.421 296.255L507.921 295.804C506.923 295.675 506.177 294.826 506.177 293.82V293.751ZM528.319 290.222L539.331 282.106L542.813 282.416L532.177 290.638L528.319 290.222ZM501.916 316.054C501.916 314.911 502.872 314 504.013 314.056L509.274 314.313C510.34 314.365 511.177 315.244 511.177 316.31V330.421C511.177 331.61 510.146 332.536 508.964 332.41L503.704 331.849C502.687 331.74 501.916 330.882 501.916 329.86V316.054ZM504.403 306.065C498.696 305.787 493.916 310.339 493.916 316.054V329.86C493.916 334.972 497.772 339.261 502.855 339.804L508.116 340.365C514.025 340.996 519.177 336.364 519.177 330.421V316.31C519.177 310.977 514.991 306.582 509.664 306.322L504.403 306.065ZM513.661 396.569L514.525 396.075C517.095 398.307 520.908 398.475 523.656 396.429L525.519 398.085C527.17 399.553 529.699 399.404 531.166 397.753C532.634 396.102 532.485 393.574 530.834 392.106L528.518 390.047C525.92 387.738 522.082 387.602 519.338 389.639C517.019 387.688 513.686 387.34 510.994 388.879L509.692 389.623C507.774 390.719 507.108 393.162 508.204 395.08C509.3 396.998 511.743 397.665 513.661 396.569ZM461.677 407.255C461.677 406.069 462.704 405.143 463.884 405.266L485.384 407.512C486.403 407.619 487.177 408.477 487.177 409.502V412.281C487.177 413.486 486.119 414.417 484.923 414.265L463.423 411.52C462.425 411.392 461.677 410.542 461.677 409.536V407.255ZM464.716 397.309C458.814 396.693 453.677 401.321 453.677 407.255V409.536C453.677 414.569 457.417 418.818 462.41 419.455L483.91 422.2C489.887 422.964 495.177 418.307 495.177 412.281V409.502C495.177 404.381 491.309 400.088 486.216 399.556L464.716 397.309ZM458.285 446.904C456.101 446.568 454.059 448.066 453.723 450.25C453.387 452.433 454.885 454.475 457.068 454.811L476.568 457.811C478.752 458.147 480.794 456.649 481.13 454.466C481.466 452.283 479.968 450.24 477.785 449.904L458.285 446.904ZM525.478 467.958C519.336 466.833 513.677 471.55 513.677 477.794V479.888C513.677 483.675 515.817 487.138 519.204 488.832L530.401 494.43C532.022 495.241 533.833 495.595 535.64 495.456L547.944 494.51C553.154 494.109 557.177 489.765 557.177 484.54V482.097C557.177 477.269 553.727 473.13 548.978 472.26L525.478 467.958ZM521.677 477.794C521.677 476.545 522.808 475.602 524.037 475.827L547.537 480.13C548.487 480.304 549.177 481.131 549.177 482.097V484.54C549.177 485.585 548.372 486.453 547.33 486.534L535.027 487.48C534.665 487.508 534.303 487.437 533.979 487.275L522.782 481.676C522.105 481.338 521.677 480.645 521.677 479.888V477.794ZM509.182 516.724C507.044 516.169 504.86 517.452 504.305 519.591C503.75 521.729 505.033 523.912 507.172 524.467L559.172 537.967C561.31 538.522 563.493 537.239 564.048 535.101C564.603 532.963 563.32 530.779 561.182 530.224L509.182 516.724ZM509.165 531.22C507.024 530.674 504.846 531.967 504.301 534.108C503.755 536.248 505.048 538.426 507.189 538.972L532.689 545.472C534.829 546.017 537.007 544.724 537.553 542.584C538.098 540.443 536.805 538.265 534.665 537.72L509.165 531.22ZM553.345 555.595C546.975 553.832 540.677 558.623 540.677 565.233V567.096V572.401C540.677 576.802 543.553 580.685 547.763 581.967L553.822 583.813C560.247 585.769 566.736 580.962 566.736 574.246V566.91C566.736 562.415 563.736 558.472 559.404 557.273L553.345 555.595ZM548.677 565.233C548.677 563.911 549.936 562.952 551.21 563.305L557.269 564.983C558.136 565.223 558.736 566.011 558.736 566.91V574.246C558.736 575.59 557.438 576.551 556.153 576.16L550.094 574.314C549.252 574.058 548.677 573.281 548.677 572.401V567.096V565.233ZM507.195 563.227C505.058 562.665 502.871 563.941 502.308 566.078C501.746 568.214 503.022 570.402 505.159 570.964L514.659 573.464C516.795 574.026 518.983 572.75 519.545 570.614C520.107 568.477 518.831 566.29 516.695 565.728L507.195 563.227ZM525.219 567.734C523.086 567.158 520.89 568.421 520.315 570.554C519.739 572.686 521.002 574.882 523.134 575.458L532.634 578.021C534.767 578.597 536.963 577.335 537.538 575.202C538.114 573.069 536.852 570.873 534.719 570.298L525.219 567.734Z" fill="#FFFFEE"/>
</g>
<defs>
<filter id="filter0_d" x="853.556" y="131.588" width="117.499" height="117.435" filterUnits="userSpaceOnUse" color-interpolation-filters="sRGB">
<feFlood flood-opacity="0" result="BackgroundImageFix"/>
<feColorMatrix in="SourceAlpha" type="matrix" values="0 0 0 0 0 0 0 0 0 0 0 0 0 0 0 0 0 0 127 0" result="hardAlpha"/>
<feOffset/>
<feGaussianBlur stdDeviation="4"/>
<feComposite in2="hardAlpha" operator="out"/>
<feColorMatrix type="matrix" values="0 0 0 0 1 0 0 0 0 1 0 0 0 0 0.933333 0 0 0 0.25 0"/>
<feBlend mode="normal" in2="BackgroundImageFix" result="effect1_dropShadow"/>
<feBlend mode="normal" in="SourceGraphic" in2="effect1_dropShadow" result="shape"/>
</filter>
<filter id="filter1_d" x="237.914" y="607.823" width="129.791" height="129.974" filterUnits="userSpaceOnUse" color-interpolation-filters="sRGB">
<feFlood flood-opacity="0" result="BackgroundImageFix"/>
<feColorMatrix in="SourceAlpha" type="matrix" values="0 0 0 0 0 0 0 0 0 0 0 0 0 0 0 0 0 0 127 0" result="hardAlpha"/>
<feOffset/>
<feGaussianBlur stdDeviation="4"/>
<feComposite in2="hardAlpha" operator="out"/>
<feColorMatrix type="matrix" values="0 0 0 0 1 0 0 0 0 1 0 0 0 0 0.933333 0 0 0 0.25 0"/>
<feBlend mode="normal" in2="BackgroundImageFix" result="effect1_dropShadow"/>
<feBlend mode="normal" in="SourceGraphic" in2="effect1_dropShadow" result="shape"/>
</filter>
<filter id="filter2_d" x="701" y="430" width="112" height="112" filterUnits="userSpaceOnUse" color-interpolation-filters="sRGB">
<feFlood flood-opacity="0" result="BackgroundImageFix"/>
<feColorMatrix in="SourceAlpha" type="matrix" values="0 0 0 0 0 0 0 0 0 0 0 0 0 0 0 0 0 0 127 0" result="hardAlpha"/>
<feOffset/>
<feGaussianBlur stdDeviation="4"/>
<feComposite in2="hardAlpha" operator="out"/>
<feColorMatrix type="matrix" values="0 0 0 0 0.027451 0 0 0 0 0.164706 0 0 0 0 0.784314 0 0 0 0.25 0"/>
<feBlend mode="normal" in2="BackgroundImageFix" result="effect1_dropShadow"/>
<feBlend mode="normal" in="SourceGraphic" in2="effect1_dropShadow" result="shape"/>
</filter>
<filter id="filter3_d" x="155" y="28" width="202" height="202" filterUnits="userSpaceOnUse" color-interpolation-filters="sRGB">
<feFlood flood-opacity="0" result="BackgroundImageFix"/>
<feColorMatrix in="SourceAlpha" type="matrix" values="0 0 0 0 0 0 0 0 0 0 0 0 0 0 0 0 0 0 127 0" result="hardAlpha"/>
<feOffset/>
<feGaussianBlur stdDeviation="4"/>
<feComposite in2="hardAlpha" operator="out"/>
<feColorMatrix type="matrix" values="0 0 0 0 0.027451 0 0 0 0 0.164706 0 0 0 0 0.784314 0 0 0 0.25 0"/>
<feBlend mode="normal" in2="BackgroundImageFix" result="effect1_dropShadow"/>
<feBlend mode="normal" in="SourceGraphic" in2="effect1_dropShadow" result="shape"/>
</filter>
<filter id="filter4_d" x="19.6846" y="430.85" width="135.059" height="139.955" filterUnits="userSpaceOnUse" color-interpolation-filters="sRGB">
<feFlood flood-opacity="0" result="BackgroundImageFix"/>
<feColorMatrix in="SourceAlpha" type="matrix" values="0 0 0 0 0 0 0 0 0 0 0 0 0 0 0 0 0 0 127 0" result="hardAlpha"/>
<feOffset/>
<feGaussianBlur stdDeviation="4"/>
<feComposite in2="hardAlpha" operator="out"/>
<feColorMatrix type="matrix" values="0 0 0 0 0.027451 0 0 0 0 0.164706 0 0 0 0 0.784314 0 0 0 0.25 0"/>
<feBlend mode="normal" in2="BackgroundImageFix" result="effect1_dropShadow"/>
<feBlend mode="normal" in="SourceGraphic" in2="effect1_dropShadow" result="shape"/>
</filter>
<filter id="filter5_d" x="719.858" y="667.774" width="188.335" height="144.263" filterUnits="userSpaceOnUse" color-interpolation-filters="sRGB">
<feFlood flood-opacity="0" result="BackgroundImageFix"/>
<feColorMatrix in="SourceAlpha" type="matrix" values="0 0 0 0 0 0 0 0 0 0 0 0 0 0 0 0 0 0 127 0" result="hardAlpha"/>
<feOffset/>
<feGaussianBlur stdDeviation="4"/>
<feComposite in2="hardAlpha" operator="out"/>
<feColorMatrix type="matrix" values="0 0 0 0 0.027451 0 0 0 0 0.164706 0 0 0 0 0.784314 0 0 0 0.25 0"/>
<feBlend mode="normal" in2="BackgroundImageFix" result="effect1_dropShadow"/>
<feBlend mode="normal" in="SourceGraphic" in2="effect1_dropShadow" result="shape"/>
</filter>
<filter id="filter6_d" x="151" y="46.2704" width="602.179" height="708.825" filterUnits="userSpaceOnUse" color-interpolation-filters="sRGB">
<feFlood flood-opacity="0" result="BackgroundImageFix"/>
<feColorMatrix in="SourceAlpha" type="matrix" values="0 0 0 0 0 0 0 0 0 0 0 0 0 0 0 0 0 0 127 0" result="hardAlpha"/>
<feOffset/>
<feGaussianBlur stdDeviation="20"/>
<feComposite in2="hardAlpha" operator="out"/>
<feColorMatrix type="matrix" values="0 0 0 0 1 0 0 0 0 1 0 0 0 0 0.933333 0 0 0 0.5 0"/>
<feBlend mode="normal" in2="BackgroundImageFix" result="effect1_dropShadow"/>
<feBlend mode="normal" in="SourceGraphic" in2="effect1_dropShadow" result="shape"/>
</filter>
<linearGradient id="paint0_linear" x1="892.041" y1="126.78" x2="945.848" y2="227.284" gradientUnits="userSpaceOnUse">
<stop stop-color="#1360E2"/>
<stop offset="1" stop-color="#1360E2" stop-opacity="0.4"/>
</linearGradient>
<linearGradient id="paint1_linear" x1="349.899" y1="625.601" x2="285.399" y2="719.601" gradientUnits="userSpaceOnUse">
<stop stop-color="#1360E2"/>
<stop offset="1" stop-color="#1360E2" stop-opacity="0.4"/>
</linearGradient>
<linearGradient id="paint2_linear" x1="721" y1="486" x2="793" y2="522" gradientUnits="userSpaceOnUse">
<stop stop-color="#1360E2"/>
<stop offset="1" stop-color="#1360E2" stop-opacity="0.6"/>
</linearGradient>
<linearGradient id="paint3_linear" x1="314.5" y1="167.5" x2="200.5" y2="181.5" gradientUnits="userSpaceOnUse">
<stop stop-color="#1360E2"/>
<stop offset="1" stop-color="#1360E2" stop-opacity="0.6"/>
</linearGradient>
<linearGradient id="paint4_linear" x1="63.2632" y1="431.063" x2="102.779" y2="544.37" gradientUnits="userSpaceOnUse">
<stop stop-color="#1360E2"/>
<stop offset="1" stop-color="#1360E2" stop-opacity="0.6"/>
</linearGradient>
<linearGradient id="paint5_linear" x1="890" y1="760" x2="743.5" y2="702" gradientUnits="userSpaceOnUse">
<stop stop-color="#1360E2"/>
<stop offset="1" stop-color="#1360E2" stop-opacity="0.6"/>
</linearGradient>
</defs>
</svg>
